<svg xmlns="http://www.w3.org/2000/svg" width="105.549" height="48.39" viewBox="0 0 105.549 48.39">
    <defs>
        <style>
            .cls-1{fill:#8a8987}
        </style>
    </defs>
    <g id="logo" transform="translate(-102.138 -264.118)">
        <g id="グループ_6" transform="translate(102.138 264.118)">
            <g id="グループ_5">
                <g id="グループ_4">
                    <g id="グループ_3">
                        <g id="グループ_1">
                            <path id="長方形_3" d="M0 0H23.343V7.104H0z" class="cls-1" transform="translate(7.104 23.345)"/>
                            <path id="パス_1" d="M132.585 271.225v-7.107h-30.447v23.345h7.1v-4.57h23.343v-7.1h-23.339v-4.565z" class="cls-1" transform="translate(-102.138 -264.118)"/>
                        </g>
                        <g id="グループ_2" transform="translate(75.103)">
                            <path id="長方形_4" d="M0 0H7.103V23.342H0z" class="cls-1" transform="translate(23.344 7.107)"/>
                            <path id="パス_2" d="M212.417 264.118v30.449h7.1v-23.342h4.568v23.342h7.106v-23.342h4.568v-7.107z" class="cls-1" transform="translate(-212.417 -264.118)"/>
                        </g>
                        <path id="パス_3" fill="#180d09" d="M180.619 264.118v23.345h-4.566v-16.238h-7.106v16.238h-4.566v-23.345h-7.1v30.449h30.445v-30.449z" transform="translate(-119.726 -264.118)"/>
                    </g>
                    <path id="パス_4" d="M7.451-6.011l-.962.952a2.843 2.843 0 0 0-2.129-.966 2.432 2.432 0 0 0-1.775.7 2.307 2.307 0 0 0-.715 1.712 2.367 2.367 0 0 0 .742 1.763 2.523 2.523 0 0 0 1.831.723 2.244 2.244 0 0 0 1.194-.3 2.1 2.1 0 0 0 .784-.933h-2.08v-1.283h3.613l.01.3a3.516 3.516 0 0 1-.488 1.787A3.414 3.414 0 0 1 6.211-.264 3.6 3.6 0 0 1 4.39.181 4.045 4.045 0 0 1 2.4-.305a3.554 3.554 0 0 1-1.392-1.384A3.86 3.86 0 0 1 .5-3.628a3.6 3.6 0 0 1 .942-2.48 3.715 3.715 0 0 1 2.91-1.255 4.433 4.433 0 0 1 1.748.346 4.02 4.02 0 0 1 1.351 1.006zm1.709.7h1.14v.669a1.427 1.427 0 0 1 .493-.6 1.19 1.19 0 0 1 .674-.205 1.247 1.247 0 0 1 .542.137L11.6-4.165a.917.917 0 0 0-.386-.117.61.61 0 0 0-.52.381 3.485 3.485 0 0 0-.212 1.494V0H9.16zm6.006-.137a2.816 2.816 0 0 1 1.414.376 2.716 2.716 0 0 1 1.033 1.021 2.742 2.742 0 0 1 .371 1.392 2.79 2.79 0 0 1-.374 1.406 2.7 2.7 0 0 1-1.019 1.021 2.811 2.811 0 0 1-1.421.369 2.65 2.65 0 0 1-1.95-.813 2.7 2.7 0 0 1-.808-1.975 2.688 2.688 0 0 1 .913-2.075 2.667 2.667 0 0 1 1.841-.723zm.02 1.255a1.369 1.369 0 0 0-1.033.432 1.536 1.536 0 0 0-.413 1.106 1.565 1.565 0 0 0 .408 1.123 1.362 1.362 0 0 0 1.033.43 1.378 1.378 0 0 0 1.04-.435 1.553 1.553 0 0 0 .415-1.118 1.543 1.543 0 0 0-.408-1.111 1.378 1.378 0 0 0-1.043-.428zm4.032-1.118h1.348v2.559a3.551 3.551 0 0 0 .1 1.038.905.905 0 0 0 .33.452.941.941 0 0 0 .559.161.975.975 0 0 0 .564-.159.931.931 0 0 0 .344-.466 3.585 3.585 0 0 0 .083-.981v-2.6h1.338v2.251a5.521 5.521 0 0 1-.22 1.9 2.077 2.077 0 0 1-.791.959 2.421 2.421 0 0 1-1.328.334 2.356 2.356 0 0 1-1.414-.391 2.064 2.064 0 0 1-.759-1.089 6.6 6.6 0 0 1-.155-1.757zm7.479 0v.586a2.507 2.507 0 0 1 .781-.542 2.249 2.249 0 0 1 .9-.181 2.319 2.319 0 0 1 1.768.786 2.852 2.852 0 0 1 .728 2.017 2.783 2.783 0 0 1-.752 1.985 2.368 2.368 0 0 1-1.782.8 2.214 2.214 0 0 1-.854-.164 2.605 2.605 0 0 1-.786-.538v2.5h-1.327v-7.25zm1.4 1.094a1.392 1.392 0 0 0-1.045.43 1.549 1.549 0 0 0-.415 1.123 1.594 1.594 0 0 0 .415 1.145 1.38 1.38 0 0 0 1.045.437 1.355 1.355 0 0 0 1.028-.444 1.588 1.588 0 0 0 .417-1.133 1.572 1.572 0 0 0-.41-1.121 1.359 1.359 0 0 0-1.032-.439z" class="cls-1" transform="translate(36.84 46.447)"/>
                </g>
            </g>
        </g>
    </g>
</svg>
